<svg width="101" height="54" viewBox="0 0 101 54" fill="none" xmlns="http://www.w3.org/2000/svg">
<path d="M84.4907 22.2307L84.5797 23.532L85.8808 23.6246C93.0148 24.1324 98.629 30.0603 98.6163 37.3004V37.3031C98.6163 44.8628 92.4787 51.0059 84.8874 51.0059H15.934C8.355 51.0059 2.20508 44.8751 2.20508 37.3031C2.20508 29.7433 8.34271 23.6002 15.934 23.6002H16.2443H17.6094L17.7376 22.2411C18.4833 14.3346 25.16 8.12991 33.2922 8.12991C37.0519 8.12991 40.4982 9.4526 43.1869 11.6487L44.4346 12.6677L45.3622 11.3507C49.2666 5.80694 55.6985 2.20361 62.9887 2.20361C74.3937 2.20361 83.7264 11.0488 84.4907 22.2307Z" fill="#EEBDD2" stroke="#383A48" stroke-width="3"/>
<mask id="path-2-inside-1_191_810" fill="white">
<path d="M84.8873 53.21H15.934C7.14915 53.21 0 46.0731 0 37.3033C0 28.6461 6.97994 21.5655 15.6097 21.3966C16.1455 17.2581 18.1337 13.4433 21.25 10.5857C24.5496 7.57327 28.8222 5.91222 33.2922 5.91222C37.1558 5.91222 40.9208 7.16505 43.9947 9.47363C48.4647 3.53326 55.5152 0 62.9886 0C69.052 0 74.8193 2.28043 79.2329 6.41898C83.4772 10.4027 86.1 15.7237 86.6358 21.4811C90.4148 21.8893 93.9119 23.6348 96.5346 26.4361C99.2984 29.3922 100.821 33.2492 100.821 37.3033C100.821 46.0731 93.6721 53.21 84.8873 53.21ZM15.934 22.8043C7.9247 22.8043 1.41009 29.3077 1.41009 37.3033C1.41009 45.2989 7.9247 51.8023 15.934 51.8023H84.8873C92.8966 51.8023 99.4112 45.2989 99.4112 37.3033C99.4112 33.6011 98.0293 30.0819 95.5053 27.3933C92.9953 24.7046 89.597 23.0858 85.9308 22.8324C85.5782 22.8043 85.2962 22.5228 85.2821 22.1849C84.9014 16.5542 82.4055 11.3177 78.274 7.44658C74.1142 3.54733 68.6854 1.40767 62.9886 1.40767C55.7267 1.40767 48.9019 4.95501 44.7139 10.8954C44.6011 11.0502 44.4319 11.1628 44.2345 11.191C44.0371 11.2191 43.8396 11.1628 43.6986 11.0361C40.7797 8.65718 37.0853 7.33397 33.3063 7.33397C29.1888 7.33397 25.2547 8.85426 22.223 11.6274C19.2054 14.3864 17.3441 18.1167 16.9634 22.1568C16.9352 22.5227 16.6249 22.7902 16.2583 22.7902H15.934V22.8043Z"/>
</mask>
<path d="M84.8873 53.21H15.934C7.14915 53.21 0 46.0731 0 37.3033C0 28.6461 6.97994 21.5655 15.6097 21.3966C16.1455 17.2581 18.1337 13.4433 21.25 10.5857C24.5496 7.57327 28.8222 5.91222 33.2922 5.91222C37.1558 5.91222 40.9208 7.16505 43.9947 9.47363C48.4647 3.53326 55.5152 0 62.9886 0C69.052 0 74.8193 2.28043 79.2329 6.41898C83.4772 10.4027 86.1 15.7237 86.6358 21.4811C90.4148 21.8893 93.9119 23.6348 96.5346 26.4361C99.2984 29.3922 100.821 33.2492 100.821 37.3033C100.821 46.0731 93.6721 53.21 84.8873 53.21ZM15.934 22.8043C7.9247 22.8043 1.41009 29.3077 1.41009 37.3033C1.41009 45.2989 7.9247 51.8023 15.934 51.8023H84.8873C92.8966 51.8023 99.4112 45.2989 99.4112 37.3033C99.4112 33.6011 98.0293 30.0819 95.5053 27.3933C92.9953 24.7046 89.597 23.0858 85.9308 22.8324C85.5782 22.8043 85.2962 22.5228 85.2821 22.1849C84.9014 16.5542 82.4055 11.3177 78.274 7.44658C74.1142 3.54733 68.6854 1.40767 62.9886 1.40767C55.7267 1.40767 48.9019 4.95501 44.7139 10.8954C44.6011 11.0502 44.4319 11.1628 44.2345 11.191C44.0371 11.2191 43.8396 11.1628 43.6986 11.0361C40.7797 8.65718 37.0853 7.33397 33.3063 7.33397C29.1888 7.33397 25.2547 8.85426 22.223 11.6274C19.2054 14.3864 17.3441 18.1167 16.9634 22.1568C16.9352 22.5227 16.6249 22.7902 16.2583 22.7902H15.934V22.8043Z" fill="#EEBDD2"/>
<path d="M15.6097 21.3966L15.6684 24.396L18.2529 24.3454L18.5848 21.7818L15.6097 21.3966ZM21.25 10.5857L19.2273 8.37014L19.2225 8.37457L21.25 10.5857ZM43.9947 9.47363L42.1932 11.8725L44.5898 13.6723L46.3919 11.2774L43.9947 9.47363ZM79.2329 6.41898L81.2859 4.23156L81.2849 4.23058L79.2329 6.41898ZM86.6358 21.4811L83.6487 21.7591L83.8759 24.2004L86.3136 24.4637L86.6358 21.4811ZM96.5346 26.4361L98.726 24.3872L98.7246 24.3857L96.5346 26.4361ZM15.934 22.8043V25.8043H18.934V22.8043H15.934ZM95.5053 27.3933L93.3123 29.4405L93.3181 29.4466L95.5053 27.3933ZM85.9308 22.8324L85.6919 25.8229L85.7079 25.8242L85.7239 25.8253L85.9308 22.8324ZM85.2821 22.1849L88.2795 22.0598L88.2779 22.0211L88.2753 21.9825L85.2821 22.1849ZM78.274 7.44658L76.2223 9.63533L76.2228 9.63579L78.274 7.44658ZM44.7139 10.8954L47.1387 12.6619L47.1524 12.643L47.1658 12.624L44.7139 10.8954ZM43.6986 11.0361L45.7036 8.80455L45.6499 8.7563L45.5939 8.71068L43.6986 11.0361ZM22.223 11.6274L24.2473 13.8414L24.2478 13.841L22.223 11.6274ZM16.9634 22.1568L13.9766 21.8753L13.9742 21.9008L13.9722 21.9263L16.9634 22.1568ZM15.934 22.7902V19.7902H12.934V22.7902H15.934ZM84.8873 50.21H15.934V56.21H84.8873V50.21ZM15.934 50.21C8.80115 50.21 3 44.4114 3 37.3033H-3C-3 47.7348 5.49715 56.21 15.934 56.21V50.21ZM3 37.3033C3 30.286 8.66636 24.5331 15.6684 24.396L15.551 18.3972C5.29351 18.598 -3 27.0062 -3 37.3033H3ZM18.5848 21.7818C19.0288 18.3532 20.676 15.1824 23.2776 12.7968L19.2225 8.37457C15.5914 11.7042 13.2623 16.1629 12.6345 21.0114L18.5848 21.7818ZM23.2727 12.8012C26.0208 10.2924 29.5724 8.91222 33.2922 8.91222V2.91222C28.072 2.91222 23.0785 4.8542 19.2273 8.37015L23.2727 12.8012ZM33.2922 8.91222C36.5096 8.91222 39.6416 9.9562 42.1932 11.8725L45.7963 7.07479C42.1999 4.3739 37.8021 2.91222 33.2922 2.91222V8.91222ZM46.3919 11.2774C50.296 6.08909 56.4592 3 62.9886 3V-3C54.5711 -3 46.6335 0.977425 41.5976 7.66984L46.3919 11.2774ZM62.9886 3C68.2908 3 73.3241 4.99097 77.1808 8.60739L81.2849 4.23058C76.3145 -0.430112 69.8132 -3 62.9886 -3V3ZM77.1798 8.60641C80.897 12.0954 83.1816 16.7401 83.6487 21.7591L89.6229 21.2031C89.0183 14.7073 86.0574 8.71001 81.2859 4.23156L77.1798 8.60641ZM86.3136 24.4637C89.3749 24.7944 92.2103 26.2069 94.3447 28.4865L98.7246 24.3857C95.6134 21.0627 91.4548 18.9842 86.958 18.4984L86.3136 24.4637ZM94.3432 28.4849C96.5872 30.885 97.8213 34.0096 97.8213 37.3033H103.821C103.821 32.4888 102.01 27.8993 98.726 24.3872L94.3432 28.4849ZM97.8213 37.3033C97.8213 44.4114 92.0201 50.21 84.8873 50.21V56.21C95.3242 56.21 103.821 47.7348 103.821 37.3033H97.8213ZM15.934 19.8043C6.27269 19.8043 -1.58991 27.646 -1.58991 37.3033H4.41009C4.41009 30.9694 9.5767 25.8043 15.934 25.8043V19.8043ZM-1.58991 37.3033C-1.58991 46.9606 6.27269 54.8023 15.934 54.8023V48.8023C9.5767 48.8023 4.41009 43.6372 4.41009 37.3033H-1.58991ZM15.934 54.8023H84.8873V48.8023H15.934V54.8023ZM84.8873 54.8023C94.5486 54.8023 102.411 46.9606 102.411 37.3033H96.4112C96.4112 43.6372 91.2446 48.8023 84.8873 48.8023V54.8023ZM102.411 37.3033C102.411 32.846 100.744 28.5905 97.6925 25.34L93.3181 29.4466C95.3147 31.5734 96.4112 34.3562 96.4112 37.3033H102.411ZM97.6982 25.3461C94.6703 22.1027 90.5625 20.1454 86.1376 19.8396L85.7239 25.8253C88.6315 26.0262 91.3203 27.3066 93.3123 29.4405L97.6982 25.3461ZM86.1696 19.842C87.2217 19.926 88.226 20.7778 88.2795 22.0598L82.2847 22.31C82.3664 24.2677 83.9348 25.6826 85.6919 25.8229L86.1696 19.842ZM88.2753 21.9825C87.8429 15.5883 85.0065 9.64362 80.3252 5.25738L76.2228 9.63579C79.8046 12.9917 81.9599 17.5201 82.289 22.3873L88.2753 21.9825ZM80.3257 5.25784C75.6083 0.83591 69.4454 -1.59233 62.9886 -1.59233V4.40767C67.9254 4.40767 72.6201 6.25876 76.2223 9.63533L80.3257 5.25784ZM62.9886 -1.59233C54.7484 -1.59233 47.0103 2.43154 42.262 9.16678L47.1658 12.624C50.7934 7.47847 56.7049 4.40767 62.9886 4.40767V-1.59233ZM42.2891 9.12889C42.6003 8.70173 43.1209 8.31944 43.8109 8.22104L44.658 14.1609C45.7428 14.0062 46.6019 13.3987 47.1387 12.6619L42.2891 9.12889ZM43.8109 8.22104C44.4268 8.13321 45.1365 8.29502 45.7036 8.80455L41.6936 13.2677C42.5428 14.0307 43.6473 14.3051 44.658 14.1609L43.8109 8.22104ZM45.5939 8.71068C42.1422 5.89745 37.7791 4.33397 33.3063 4.33397V10.334C36.3915 10.334 39.4173 11.4169 41.8033 13.3616L45.5939 8.71068ZM33.3063 4.33397C28.444 4.33397 23.7863 6.13167 20.1982 9.41375L24.2478 13.841C26.7231 11.5768 29.9337 10.334 33.3063 10.334V4.33397ZM20.1986 9.41332C16.635 12.6716 14.4276 17.0893 13.9766 21.8753L19.9501 22.4382C20.2605 19.1442 21.7758 16.1012 24.2473 13.8414L20.1986 9.41332ZM13.9722 21.9263C14.0732 20.6158 15.1741 19.7902 16.2583 19.7902V25.7902C18.0758 25.7902 19.7971 24.4297 19.9545 22.3872L13.9722 21.9263ZM16.2583 19.7902H15.934V25.7902H16.2583V19.7902ZM12.934 22.7902V22.8043H18.934V22.7902H12.934Z" fill="#383A48" mask="url(#path-2-inside-1_191_810)"/>
<mask id="path-4-inside-2_191_810" fill="white">
<path d="M18.6414 22.79H16.2583C15.8634 22.79 15.5532 22.4803 15.5532 22.0862C15.5532 21.692 15.8634 21.3823 16.2583 21.3823H18.6414C19.0362 21.3823 19.3464 21.692 19.3464 22.0862C19.3464 22.4803 19.0362 22.79 18.6414 22.79Z"/>
</mask>
<path d="M18.6414 22.79H16.2583C15.8634 22.79 15.5532 22.4803 15.5532 22.0862C15.5532 21.692 15.8634 21.3823 16.2583 21.3823H18.6414C19.0362 21.3823 19.3464 21.692 19.3464 22.0862C19.3464 22.4803 19.0362 22.79 18.6414 22.79Z" fill="#EEBDD2"/>
<path d="M18.6414 19.79H16.2583V25.79H18.6414V19.79ZM16.2583 19.79C17.5154 19.79 18.5532 20.8185 18.5532 22.0862H12.5532C12.5532 24.1421 14.2115 25.79 16.2583 25.79V19.79ZM18.5532 22.0862C18.5532 23.3538 17.5154 24.3823 16.2583 24.3823V18.3823C14.2115 18.3823 12.5532 20.0302 12.5532 22.0862H18.5532ZM16.2583 24.3823H18.6414V18.3823H16.2583V24.3823ZM18.6414 24.3823C17.3843 24.3823 16.3464 23.3538 16.3464 22.0862H22.3464C22.3464 20.0302 20.6881 18.3823 18.6414 18.3823V24.3823ZM16.3464 22.0862C16.3464 20.8185 17.3843 19.79 18.6414 19.79V25.79C20.6881 25.79 22.3464 24.1421 22.3464 22.0862H16.3464Z" fill="#383A48" mask="url(#path-4-inside-2_191_810)"/>
<mask id="path-6-inside-3_191_810" fill="white">
<path d="M85.9867 24.9017C85.5919 24.9017 85.2817 24.5921 85.2817 24.1979V22.1286C85.2817 21.7345 85.5919 21.4248 85.9867 21.4248C86.3816 21.4248 86.6918 21.7345 86.6918 22.1286V24.1979C86.6918 24.5921 86.3816 24.9017 85.9867 24.9017Z"/>
</mask>
<path d="M85.9867 24.9017C85.5919 24.9017 85.2817 24.5921 85.2817 24.1979V22.1286C85.2817 21.7345 85.5919 21.4248 85.9867 21.4248C86.3816 21.4248 86.6918 21.7345 86.6918 22.1286V24.1979C86.6918 24.5921 86.3816 24.9017 85.9867 24.9017Z" fill="#EEBDD2"/>
<path d="M85.9867 21.9017C87.2441 21.9017 88.2817 22.9305 88.2817 24.1979H82.2817C82.2817 26.2536 83.9398 27.9017 85.9867 27.9017V21.9017ZM88.2817 24.1979V22.1286H82.2817V24.1979H88.2817ZM88.2817 22.1286C88.2817 23.3961 87.2441 24.4248 85.9867 24.4248V18.4248C83.9398 18.4248 82.2817 20.0729 82.2817 22.1286H88.2817ZM85.9867 24.4248C84.7294 24.4248 83.6918 23.3961 83.6918 22.1286H89.6918C89.6918 20.0729 88.0337 18.4248 85.9867 18.4248V24.4248ZM83.6918 22.1286V24.1979H89.6918V22.1286H83.6918ZM83.6918 24.1979C83.6918 22.9305 84.7294 21.9017 85.9867 21.9017V27.9017C88.0337 27.9017 89.6918 26.2536 89.6918 24.1979H83.6918Z" fill="#383A48" mask="url(#path-6-inside-3_191_810)"/>
<mask id="path-8-inside-4_191_810" fill="white">
<path d="M45.6022 12.4014C45.4471 12.4014 45.2779 12.3451 45.151 12.2324L43.6985 11.0218C43.4024 10.7685 43.3601 10.3321 43.6139 10.0365C43.8678 9.74087 44.3049 9.69864 44.601 9.95202L46.0534 11.1626C46.3496 11.416 46.3919 11.8524 46.138 12.148C45.997 12.3169 45.7996 12.4014 45.6022 12.4014Z"/>
</mask>
<path d="M45.6022 12.4014C45.4471 12.4014 45.2779 12.3451 45.151 12.2324L43.6985 11.0218C43.4024 10.7685 43.3601 10.3321 43.6139 10.0365C43.8678 9.74087 44.3049 9.69864 44.601 9.95202L46.0534 11.1626C46.3496 11.416 46.3919 11.8524 46.138 12.148C45.997 12.3169 45.7996 12.4014 45.6022 12.4014Z" fill="#EEBDD2"/>
<path d="M45.151 12.2324L47.1421 9.98849L47.1074 9.95768L47.0717 9.92796L45.151 12.2324ZM43.6985 11.0218L41.7481 13.3013L41.7629 13.3139L41.7778 13.3263L43.6985 11.0218ZM44.601 9.95202L42.6506 12.2315L42.6653 12.2441L42.6802 12.2565L44.601 9.95202ZM46.0534 11.1626L48.0039 8.88317L47.9891 8.87056L47.9742 8.85814L46.0534 11.1626ZM46.138 12.148L43.862 10.1936L43.8484 10.2095L43.835 10.2255L46.138 12.148ZM45.6022 9.40136C46.1169 9.40136 46.6741 9.57317 47.1421 9.98849L43.1598 14.4764C43.8817 15.1169 44.7772 15.4014 45.6022 15.4014V9.40136ZM47.0717 9.92796L45.6193 8.71737L41.7778 13.3263L43.2302 14.5369L47.0717 9.92796ZM45.649 8.7424C46.5602 9.52212 46.7618 10.9755 45.89 11.9908L41.3378 8.08215C39.9584 9.68867 40.2446 12.0148 41.7481 13.3013L45.649 8.7424ZM45.89 11.9908C45.1101 12.8992 43.6629 13.0976 42.6506 12.2315L46.5514 7.67257C44.9469 6.29967 42.6254 6.58256 41.3378 8.08215L45.89 11.9908ZM42.6802 12.2565L44.1327 13.4671L47.9742 8.85814L46.5218 7.64754L42.6802 12.2565ZM44.103 13.4421C43.1918 12.6623 42.9902 11.2089 43.862 10.1936L48.4141 14.1023C49.7935 12.4958 49.5074 10.1696 48.0039 8.88317L44.103 13.4421ZM43.835 10.2255C44.2805 9.69184 44.9362 9.40136 45.6022 9.40136V15.4014C46.663 15.4014 47.7136 14.942 48.4411 14.0705L43.835 10.2255Z" fill="#383A48" mask="url(#path-8-inside-4_191_810)"/>
</svg>
