<svg width="59" height="56" viewBox="0 0 59 56" fill="none" xmlns="http://www.w3.org/2000/svg">
<path d="M26.6254 6.47401L29.437 9.83946L32.4276 6.32103C37.4885 0.329518 46.4602 -0.460852 52.518 4.53633C58.6525 9.60999 59.4704 18.6865 54.3328 24.7545L29.2836 54.4061L4.56677 24.729C-0.494179 18.661 0.349312 9.63549 6.45824 4.58732C12.5416 -0.40986 21.5644 0.406006 26.6254 6.47401Z" fill="#E0719E"/>
<path d="M29.3088 55.7063C29.6922 55.7063 30.0501 55.5278 30.2801 55.2474L55.3293 25.5957C58.0387 22.4087 59.3167 18.3294 58.9333 14.1736C58.5499 10.0178 56.5817 6.2444 53.3356 3.56734C46.7666 -1.86327 36.9514 -0.996411 31.4303 5.50502L29.4366 7.87613L27.5963 5.658C22.1008 -0.945419 12.2601 -1.83777 5.63993 3.61833C2.41932 6.2699 0.451176 10.0178 0.0677719 14.1736C-0.315636 18.3294 0.936825 22.3578 3.5951 25.5702L28.312 55.2474C28.5676 55.5278 28.9254 55.7063 29.3088 55.7063ZM43.3926 2.54751C46.332 2.54751 49.2715 3.51635 51.6997 5.53052C54.4091 7.77415 56.0705 10.9101 56.3772 14.4031C56.684 17.896 55.6104 21.2869 53.3611 23.964L29.3088 52.4683L5.56325 23.964C3.3395 21.2869 2.29152 17.896 2.59825 14.4286C2.90497 10.9611 4.59196 7.82514 7.27579 5.607C12.7968 1.04325 21.0528 1.80813 25.6281 7.31522L28.4398 10.6807C28.6698 10.9611 29.0277 11.1396 29.4111 11.1396C29.7945 11.1396 30.1523 10.9866 30.3824 10.6807L33.3729 7.16225C35.9801 4.10275 39.6608 2.54751 43.3926 2.54751Z" fill="#383A48"/>
</svg>
