<svg width="73" height="73" viewBox="0 0 73 73" fill="none" xmlns="http://www.w3.org/2000/svg">
<path d="M20.7347 27.6663C18.5935 40.1324 26.9237 51.9671 39.3407 54.0999C51.7576 56.2327 63.5594 47.8558 65.7006 35.3897C67.8418 22.9236 59.5117 11.0889 47.0947 8.95613C34.6777 6.82335 22.876 15.2002 20.7347 27.6663Z" fill="#AAC6FC"/>
<path d="M18.1203 27.217C20.5096 13.3065 33.6896 3.9514 47.5454 6.33131C61.4011 8.71122 70.7041 21.928 68.3147 35.8386C65.9254 49.7492 52.7454 59.1043 38.8897 56.7243C25.0339 54.3444 15.731 41.1276 18.1203 27.217ZM63.0862 34.9405C64.9796 23.9171 57.6238 13.4666 46.6437 11.5806C35.6637 9.69462 25.2423 17.0917 23.3489 28.1151C21.4555 39.1386 28.8113 49.5891 39.7913 51.4751C50.7714 53.361 61.1927 45.964 63.0862 34.9405Z" fill="#383A48"/>
<path d="M0.450917 59.5792C0.568129 58.8968 0.946772 58.2592 1.55078 57.8766L23.0679 42.6039C24.2939 41.7337 25.9148 42.0121 26.7802 43.2415C27.6456 44.471 27.3661 46.0983 26.14 46.9685L4.57965 62.1798C3.3536 63.05 1.73274 62.7716 0.867349 61.5421C0.477923 60.9889 0.333705 60.2616 0.450917 59.5792Z" fill="#383A48"/>
</svg>
