<svg width="87" height="80" viewBox="0 0 87 80" fill="none" xmlns="http://www.w3.org/2000/svg">
<path d="M29.9642 11.3341L76.8839 51.3347L60.1343 71.1606L13.2146 31.16L8.89802 14.6299C8.22233 12.0076 10.3511 9.48775 13.026 9.7438L29.9642 11.3341Z" fill="#DFEAFF"/>
<path d="M30.5047 10.6941L77.4247 50.6937C77.7785 50.9953 77.8188 51.5137 77.5162 51.8719L60.7669 71.6979C60.4643 72.056 59.9486 72.1004 59.5947 71.7988L12.6747 31.7992C12.5484 31.6915 12.4544 31.5454 12.4055 31.3717L8.08878 14.8418C7.70111 13.3451 8.07259 11.7475 9.07755 10.558C10.0717 9.38122 11.5931 8.76396 13.1028 8.90679L30.0409 10.4968C30.2195 10.517 30.3783 10.5864 30.5047 10.6941ZM75.7122 51.4341L29.6262 12.1456L12.9496 10.5805C11.9504 10.4767 11.0022 10.8786 10.3539 11.646C9.69469 12.4263 9.45418 13.4314 9.7078 14.4178L13.9575 30.6925L60.0435 69.981L75.7122 51.4341Z" fill="#383A48"/>
<path d="M75.1503 49.8725C69.6985 45.2292 61.501 45.9366 56.8405 51.4524C52.1801 56.9682 52.8216 65.2038 58.2733 69.847C63.725 74.4903 71.9226 73.7829 76.583 68.2671C81.2435 62.7513 80.602 54.5157 75.1503 49.8725Z" fill="#DFEAFF"/>
<path d="M75.6916 49.2324C81.4804 54.1626 82.1647 62.9477 77.2161 68.8045C72.2675 74.6613 63.5228 75.4159 57.734 70.4856C51.9452 65.5553 51.261 56.7703 56.2096 50.9135C61.1582 45.0567 69.9028 44.3021 75.6916 49.2324ZM58.8145 69.2068C63.9082 73.5451 71.5978 72.8815 75.9522 67.728C80.3065 62.5746 79.7048 54.8493 74.6112 50.5111C69.5175 46.1729 61.8278 46.8365 57.4735 51.9899C53.1192 57.1434 53.7209 64.8686 58.8145 69.2068Z" fill="#383A48"/>
<path d="M70.7642 55.0647C68.1466 52.8352 64.2105 53.1749 61.9727 55.8233C59.735 58.4718 60.043 62.4261 62.6607 64.6556C65.2784 66.885 69.2144 66.5454 71.4522 63.897C73.6899 61.2485 73.3819 57.2942 70.7642 55.0647Z" fill="#383A48"/>
<path d="M71.3046 54.425C74.2621 56.9439 74.6125 61.4425 72.0842 64.4348C69.5559 67.4272 65.0781 67.8135 62.1205 65.2946C59.1629 62.7756 58.8125 58.2771 61.3408 55.2847C63.8692 52.2924 68.347 51.906 71.3046 54.425ZM63.201 64.0158C65.4634 65.9427 68.8862 65.6473 70.8203 63.3583C72.7543 61.0693 72.4865 57.6306 70.2241 55.7037C67.9616 53.7768 64.5388 54.0722 62.6048 56.3612C60.6707 58.6502 60.9385 62.0889 63.201 64.0158Z" fill="#383A48"/>
<path d="M30.6154 11.0572C33.6359 13.6293 33.9799 18.2093 31.3964 21.2639C30.0885 22.8103 28.1774 23.7332 25.9913 23.8503C25.4393 23.8859 25.0715 24.0124 24.8985 24.2169C24.6931 24.4597 24.6936 24.9218 24.7445 25.2729C24.9867 27.4799 24.4027 29.5328 23.0839 31.092C20.5004 34.1465 15.9407 34.5509 12.9202 31.9787C12.5663 31.6774 12.5261 31.1595 12.8287 30.8016C13.1314 30.4438 13.6472 30.3994 14.0011 30.7007C16.3266 32.6809 19.8311 32.3674 21.8201 30.0158C22.8254 28.8272 23.2782 27.2122 23.096 25.4741C22.9849 24.5001 23.1609 23.7266 23.6347 23.1407C24.1211 22.5656 24.8748 22.24 25.9209 22.1855C27.6363 22.0852 29.1381 21.3635 30.1434 20.1749C32.1324 17.8233 31.8707 14.3027 29.5452 12.3225C29.1914 12.0212 29.1511 11.5032 29.4538 11.1454C29.7565 10.7875 30.2615 10.7559 30.6154 11.0572Z" fill="#383A48"/>
<path d="M10.0396 18.9751L17.5078 10.1421L13.4107 9.66578C10.3853 9.31035 7.97878 12.208 8.87874 15.1288L10.0396 18.9751Z" fill="#383A48"/>
<path d="M18.0483 9.50225C18.1494 9.58834 18.2289 9.7 18.2868 9.83723C18.3918 10.1245 18.3345 10.4494 18.1399 10.6795L10.6721 19.513C10.4775 19.7431 10.1674 19.8528 9.86792 19.7956C9.56841 19.7385 9.32643 19.5105 9.2449 19.2212L8.08396 15.3748C7.57869 13.7354 7.92466 11.9634 9.02517 10.6359C10.1257 9.30843 11.8078 8.63005 13.5001 8.83967L17.5971 9.31597C17.7757 9.33613 17.9219 9.39463 18.0483 9.50225ZM10.3916 17.2735L15.8709 10.7922L13.3109 10.5034C12.1671 10.365 11.0457 10.8172 10.3126 11.71C9.57955 12.6029 9.34108 13.7849 9.67432 14.8821L10.3916 17.2735Z" fill="#383A48"/>
<path d="M22.9921 29.9162L54.5065 56.7972C54.8603 57.099 54.9003 57.6174 54.5975 57.9754C54.2946 58.3334 53.7786 58.3776 53.4248 58.0758L21.9105 31.1949C21.5566 30.8931 21.5166 30.3746 21.8195 30.0166C22.1223 29.6586 22.6383 29.6144 22.9921 29.9162Z" fill="#383A48"/>
<path d="M31.306 20.0915L62.8204 46.9725C63.1742 47.2743 63.2143 47.7927 62.9114 48.1507C62.6086 48.5087 62.0926 48.5529 61.7388 48.2511L30.2244 21.3702C29.8706 21.0684 29.8306 20.5499 30.1334 20.1919C30.4363 19.8339 30.9522 19.7897 31.306 20.0915Z" fill="#383A48"/>
</svg>
