<svg width="85" height="86" viewBox="0 0 85 86" fill="none" xmlns="http://www.w3.org/2000/svg">
<path d="M50.051 33.0669C48.676 31.9636 48.4614 30.0153 49.5632 28.6391L56.9608 19.3989C58.0625 18.0227 60.0085 17.8083 61.3835 18.9117C62.7584 20.015 62.9731 21.9632 61.8713 23.3394L54.4737 32.5797C53.3719 33.9559 51.4259 34.1703 50.051 33.0669Z" fill="#E06E9C"/>
<path d="M23.5674 66.1466C22.1925 65.0432 21.9778 63.095 23.0796 61.7188L30.4378 52.5278C31.5396 51.1516 33.4856 50.9372 34.8605 52.0406C36.2355 53.1439 36.4501 55.0921 35.3483 56.4683L27.9901 65.6593C26.8883 67.0355 24.9423 67.2499 23.5674 66.1466Z" fill="#E06E9C"/>
<path d="M28.5585 35.4378L19.377 28.07C18.0022 26.9667 17.7876 25.0188 18.8893 23.6427C19.9909 22.2667 21.9366 22.0524 23.3114 23.1556L32.4928 30.5234C33.8676 31.6266 34.0822 33.5746 32.9806 34.9506C31.8789 36.3266 29.9332 36.541 28.5585 35.4378Z" fill="#E06E9C"/>
<path d="M61.6491 61.9914L52.4185 54.5841C51.0437 53.4809 50.8291 51.5329 51.9307 50.1569C53.0324 48.7809 54.9781 48.5665 56.3529 49.6697L65.5835 57.077C66.9583 58.1802 67.1729 60.1281 66.0713 61.5042C64.9696 62.8802 63.0239 63.0946 61.6491 61.9914Z" fill="#E06E9C"/>
<path d="M38.8135 29.7807C38.1752 29.2684 37.7336 28.5105 37.6851 27.6644L36.4367 15.9266C36.2907 14.195 37.5105 12.6714 39.2303 12.4371C40.9599 12.2914 42.4821 13.5129 42.7166 15.2347L43.9649 26.9725C44.1109 28.7041 42.8912 30.2277 41.1714 30.462C40.2378 30.52 39.4518 30.2929 38.8135 29.7807Z" fill="#E06E9C"/>
<path d="M43.5006 71.9697C42.8622 71.4574 42.4698 70.7389 42.3722 69.8534L41.0354 58.1253C40.8009 56.4035 42.06 54.8308 43.829 54.6359C45.5488 54.4016 47.1201 55.6625 47.3152 57.4335L48.5636 69.1713C48.798 70.8931 47.5389 72.4658 45.77 72.6607C44.9739 72.7484 44.1389 72.4819 43.5006 71.9697Z" fill="#E06E9C"/>
<path d="M13.5999 47.9761C12.9616 47.4639 12.52 46.7059 12.4716 45.8598C12.2764 44.0888 13.4962 42.5652 15.2651 42.3704L26.9403 41.0841C28.7092 40.8892 30.2314 42.1107 30.4265 43.8817C30.6216 45.6527 29.4019 47.1763 27.6329 47.3712L15.9087 48.618C15.0733 48.7548 14.2382 48.4883 13.5999 47.9761Z" fill="#E06E9C"/>
<path d="M55.7015 43.3326C55.0632 42.8203 54.6216 42.0623 54.5731 41.2163C54.378 39.4453 55.5977 37.9217 57.3667 37.7268L69.0909 36.48C70.8599 36.2851 72.382 37.5066 72.5772 39.2776C72.7723 41.0486 71.5525 42.5721 69.7836 42.767L58.0102 43.9745C57.1748 44.1113 56.3398 43.8448 55.7015 43.3326Z" fill="#E06E9C"/>
</svg>
